<svg id="Layer_1" data-name="Layer 1" xmlns="http://www.w3.org/2000/svg" viewBox="0 0 91.91 75.12"><defs><style>.cls-1{fill:#211915;}</style></defs><title>logomm</title><path class="cls-1" d="M64.86,46.9a6.28,6.28,0,1,0,12.57,0V18.1a15.87,15.87,0,0,0-31-4.81h0A15.87,15.87,0,0,0,19.09,8V4.62a0.5,0.5,0,0,0-.5-0.5h-15a0.34,0.34,0,0,0-.17.63h0a6.51,6.51,0,0,1,2.9,5.42l0,52.11a0.34,0.34,0,0,0,.34.34h0A14.27,14.27,0,0,0,19.1,48.48s0-20.72,0-29.76h0c0-4,3.84-7.82,8.26-7.82a8.27,8.27,0,0,1,8.26,7.82l0,28.12a6.35,6.35,0,1,0,12.7,0V18.72h0a8.27,8.27,0,0,1,16.52,0V46.9Z" transform="translate(-3.27 -2.24)"/><path class="cls-1" d="M33.59,19.21a6.29,6.29,0,0,0-12.57,0V48a15.87,15.87,0,0,0,31,4.82h0a15.87,15.87,0,0,0,27.36,5.27v3.39a0.5,0.5,0,0,0,.5.5h15a0.34,0.34,0,0,0,.34-0.34A0.33,0.33,0,0,0,95,61.35h0a6.51,6.51,0,0,1-2.9-5.42l0-52.11a0.34,0.34,0,0,0-.34-0.34h0A14.27,14.27,0,0,0,79.34,17.62s0,20.72,0,29.76h0a8.27,8.27,0,0,1-16.52,0l0-28.12a6.35,6.35,0,0,0-12.7,0V47.39h0a8.27,8.27,0,0,1-16.52,0V19.21Z" transform="translate(-3.27 -2.24)"/><path class="cls-1" d="M7.36,74.39h0a1.07,1.07,0,0,1,.87-0.51,1,1,0,0,1,.95.58,1.18,1.18,0,0,1,1-.58,1.15,1.15,0,0,1,1.09,1.42v2H10.66V75.4c0-.42-0.06-1-0.61-1s-0.72.7-.72,1.2v1.61H8.69V75.52c0-.43,0-1.08-0.6-1.08s-0.73.69-.73,1.2v1.61H6.73V74H7.36v0.41Z" transform="translate(-3.27 -2.24)"/><path class="cls-1" d="M17.79,77.25H17.16V76.74h0a1.34,1.34,0,0,1-1.11.62,1.76,1.76,0,0,1,0-3.49,1.34,1.34,0,0,1,1.13.64h0V74h0.63v3.28Zm-0.6-1.64a1.08,1.08,0,0,0-1.06-1.18A1.19,1.19,0,1,0,17.19,75.61Z" transform="translate(-3.27 -2.24)"/><path class="cls-1" d="M21.87,74.51h0a0.94,0.94,0,0,1,.9-0.63,1,1,0,0,1,.52.16L23,74.61a0.55,0.55,0,0,0-.39-0.13c-0.68,0-.76.63-0.76,1.16v1.61H21.24V74h0.63v0.53Z" transform="translate(-3.27 -2.24)"/><path class="cls-1" d="M27.13,72.48a0.43,0.43,0,0,1-.87,0A0.43,0.43,0,1,1,27.13,72.48ZM27,77.25H26.38V74H27v3.28Z" transform="translate(-3.27 -2.24)"/><path class="cls-1" d="M33.69,77.25H33.05V76.74h0a1.34,1.34,0,0,1-1.11.62,1.76,1.76,0,0,1,0-3.49,1.34,1.34,0,0,1,1.13.64h0V74h0.63v3.28Zm-0.6-1.64A1.08,1.08,0,0,0,32,74.44,1.19,1.19,0,1,0,33.09,75.61Z" transform="translate(-3.27 -2.24)"/><path class="cls-1" d="M37.72,74.42h0a1.12,1.12,0,0,1,1-.54c0.92,0,1.16.62,1.16,1.42v2H39.26V75.38c0-.56-0.08-0.94-0.72-0.94-0.81,0-.81.71-0.81,1.31v1.51H37.09V74h0.63v0.44Z" transform="translate(-3.27 -2.24)"/><path class="cls-1" d="M46.42,77.25H45.79V76.74h0a1.34,1.34,0,0,1-1.11.62,1.76,1.76,0,0,1,0-3.49,1.34,1.34,0,0,1,1.13.64h0V74h0.63v3.28Zm-0.6-1.64a1.08,1.08,0,0,0-1.06-1.18A1.19,1.19,0,1,0,45.82,75.61Z" transform="translate(-3.27 -2.24)"/><path class="cls-1" d="M55,74.39h0a1.07,1.07,0,0,1,.87-0.51,1,1,0,0,1,.95.58,1.18,1.18,0,0,1,1-.58A1.15,1.15,0,0,1,59,75.29v2H58.34V75.4c0-.42-0.06-1-0.61-1s-0.72.7-.72,1.2v1.61H56.38V75.52c0-.43,0-1.08-0.6-1.08s-0.73.69-.73,1.2v1.61H54.42V74H55v0.41Z" transform="translate(-3.27 -2.24)"/><path class="cls-1" d="M62.78,75.72a1,1,0,0,0,1,1.09,1.07,1.07,0,0,0,1-.64l0.53,0.3a1.7,1.7,0,0,1-1.52.9,1.59,1.59,0,0,1-1.61-1.72,1.57,1.57,0,0,1,1.6-1.76,1.53,1.53,0,0,1,1.53,1.74v0.1h-2.5Zm1.87-.48a0.88,0.88,0,0,0-.9-0.82,0.94,0.94,0,0,0-.93.82h1.83Z" transform="translate(-3.27 -2.24)"/><path class="cls-1" d="M69,74.42h0a1.12,1.12,0,0,1,1-.54c0.92,0,1.16.62,1.16,1.42v2H70.57V75.38c0-.56-0.08-0.94-0.72-0.94-0.81,0-.81.71-0.81,1.31v1.51H68.4V74H69v0.44Z" transform="translate(-3.27 -2.24)"/><path class="cls-1" d="M75,75.72a1,1,0,0,0,1,1.09,1.07,1.07,0,0,0,1-.64l0.53,0.3a1.7,1.7,0,0,1-1.52.9,1.59,1.59,0,0,1-1.61-1.72A1.57,1.57,0,0,1,76,73.88a1.53,1.53,0,0,1,1.53,1.74v0.1H75Zm1.87-.48a0.88,0.88,0,0,0-.9-0.82,0.94,0.94,0,0,0-.93.82H76.9Z" transform="translate(-3.27 -2.24)"/><path class="cls-1" d="M82,74.72a0.49,0.49,0,0,0-.42-0.29,0.34,0.34,0,0,0-.34.32,1,1,0,0,0,.76.59,1,1,0,0,1,.76.93,1.1,1.1,0,0,1-1.13,1.09,1.21,1.21,0,0,1-1.13-.74L81,76.38a0.65,0.65,0,0,0,.6.42,0.47,0.47,0,0,0,.5-0.46A0.39,0.39,0,0,0,81.87,76l-0.62-.33a0.9,0.9,0,0,1-.63-0.83,1,1,0,0,1,1-1,1,1,0,0,1,.9.57Z" transform="translate(-3.27 -2.24)"/><path class="cls-1" d="M86.32,75.72a1,1,0,0,0,1,1.09,1.07,1.07,0,0,0,1-.64l0.53,0.3a1.7,1.7,0,0,1-1.52.9,1.59,1.59,0,0,1-1.61-1.72,1.57,1.57,0,0,1,1.6-1.76,1.53,1.53,0,0,1,1.53,1.74v0.1h-2.5Zm1.87-.48a0.88,0.88,0,0,0-.9-0.82,0.94,0.94,0,0,0-.93.82h1.83Z" transform="translate(-3.27 -2.24)"/><path class="cls-1" d="M93.26,74.72a0.49,0.49,0,0,0-.42-0.29,0.34,0.34,0,0,0-.34.32,1,1,0,0,0,.76.59,1,1,0,0,1,.76.93,1.1,1.1,0,0,1-1.13,1.09,1.21,1.21,0,0,1-1.13-.74l0.54-.25a0.65,0.65,0,0,0,.6.42,0.47,0.47,0,0,0,.5-0.46A0.39,0.39,0,0,0,93.16,76l-0.62-.33a0.9,0.9,0,0,1-.63-0.83,1,1,0,0,1,1-1,1,1,0,0,1,.9.57Z" transform="translate(-3.27 -2.24)"/></svg>